<?xml version="1.0" encoding="utf-8"?>
<!-- Generator: Adobe Illustrator 23.0.1, SVG Export Plug-In . SVG Version: 6.00 Build 0)  -->
<svg version="1.1" id="Layer_1" xmlns="http://www.w3.org/2000/svg" xmlns:xlink="http://www.w3.org/1999/xlink" x="0px" y="0px"
	 viewBox="0 0 210.71 63.3" style="enable-background:new 0 0 210.71 63.3;" xml:space="preserve">
<style type="text/css">
	.st0{fill:#BEC0C2;}
	.st1{fill:#19A1A2;}
	.st2{fill:url(#SVGID_1_);}
	.st3{fill:#FFFFFF;}
	.st4{fill:url(#SVGID_2_);}
	.st5{fill:#FFFFFF;stroke:#19A1A2;stroke-width:0.8202;stroke-miterlimit:10;}
	.st6{fill:none;stroke:#999B9E;stroke-width:1.0674;stroke-miterlimit:10;}
	.st7{fill:none;stroke:#999B9E;stroke-width:1.1562;stroke-miterlimit:10;}
	.st8{fill:#29C2E3;}
	.st9{fill:#8CC749;}
	.st10{fill:#FEE000;}
	.st11{fill:#EE203B;}
	.st12{fill:#636466;}
	.st13{fill:#ED1C24;}
	.st14{fill:#2E3192;}
	.st15{fill:none;stroke:#ED1C24;stroke-width:0.8155;stroke-miterlimit:10;}
	.st16{fill:#EC1C24;}
	.st17{fill:none;stroke:#19A1A2;stroke-width:0.9731;stroke-miterlimit:10;}
	.st18{fill:#034EA2;}
	.st19{fill:#95B6DF;stroke:#000000;stroke-width:0.5651;}
	.st20{fill:none;stroke:#000000;stroke-width:0.5651;}
</style>
<g>
	<g>
		<g>
			<g>
				<g>
					<g>
						<g>
							<path class="st18" d="M15.31,15.85c-0.8,1.34-1.93,2.01-3.4,2.01H8.19V5.99h4.06c1.46,0,2.55,0.7,3.25,2.09
								c0.54,1.08,0.8,2.37,0.8,3.85C16.3,13.45,15.97,14.75,15.31,15.85z M22.19,3.88C20.29,1.3,17.89,0,14.99,0H0.1v23.78h14.01
								c3.16,0,5.77-1.31,7.83-3.92c1.88-2.41,2.81-5.17,2.81-8.25C24.75,8.78,23.9,6.21,22.19,3.88z"/>
							<path class="st18" d="M48.49,23.78h-8.9v-9.13h-8.31v9.13h-9.05V0h9.05v8.05h8.31V0h8.9V23.78z"/>
							<path class="st18" d="M55.45,15.82l2.69-8.01h0.31l2.53,8.01H55.45z M62.63,0h-8.66l-9.5,23.78h8.42l1-2.98h8.66l0.96,2.98
								h8.69L62.63,0z"/>
							<path class="st18" d="M96.17,23.78H85.79l-6.71-9.4l-2.11,1.97v7.42h-8.78V0h8.78v7.43h0.32L84.82,0h10.58l-9.95,8.95
								L96.17,23.78z"/>
							<path class="st19" d="M181.34,23.48h-6.4l-9.02-11.6v11.6h-8.16V0.35h8.16l9.06,12.54V0.32h6.36V23.48z"/>
							<path class="st19" d="M210.09,23.46h-10.92l-6.51-8.71l-2.03,1.94l-0.01,6.77h-7.48V0.37h7.49v8.21l8.62-8.28h10.18
								l-10.09,9.16L210.09,23.46z"/>
							<path class="st19" d="M144.96,15.85l2.76-7.71h0.31l2.61,7.71H144.96z M152.35,0.35h-8.95l-9.82,23.1h8.71l1.04-2.85h8.95
								l0.98,2.85h8.98L152.35,0.35z"/>
							<path class="st19" d="M128.93,9.28c-0.7,0.39-1.33,0.59-1.9,0.59h-4.36v-3.9h5.49c0.58,0,1.01,0.21,1.33,0.62
								c0.31,0.4,0.47,0.87,0.47,1.41C129.96,8.45,129.62,8.88,128.93,9.28z M137.94,13.67c-0.71-1.05-1.73-1.85-3.03-2.4
								c0.96-0.59,1.72-1.32,2.27-2.15c0.54-0.85,0.82-1.75,0.82-2.72c0-1.72-0.75-3.11-2.26-4.17c-1.52-1.06-3.32-1.83-5.43-1.83
								h-16.35v23.05h15.85c2.37,0,4.45-0.55,6.26-1.65c1.97-1.2,2.97-2.76,2.97-4.69C139.04,15.86,138.67,14.72,137.94,13.67z
								 M129.73,17.7c-0.39,0.49-0.89,0.73-1.54,0.73h-5.52V14.2h4.57c0.8,0,1.52,0.16,2.13,0.49c0.61,0.31,0.92,0.79,0.92,1.41
								C130.29,16.68,130.11,17.21,129.73,17.7z"/>
							<path class="st18" d="M101.21,15.82l2.74-8.01h0.31l2.57,8.01H101.21z M108.5,0h-8.81l-9.67,23.78h8.58l1.02-2.98h8.81
								l0.97,2.98h8.85L108.5,0z"/>
						</g>
					</g>
				</g>
				<line class="st20" x1="0" y1="27.77" x2="210.71" y2="27.77"/>
			</g>
		</g>
	</g>
	<g>
		<path d="M0.36,63.04v-8.72h4.32v0.75H1.15v2.72h3.53v0.75H1.15v3.75h3.53v0.75H0.36z"/>
		<path d="M9.91,63.04H9.04l2.67-4.58L9.3,54.33h0.89l1.96,3.46l1.98-3.46H15l-2.41,4.11l2.65,4.61h-0.88l-2.21-3.86L9.91,63.04z"/>
		<path d="M26.62,55.93c-0.43-0.37-0.88-0.65-1.33-0.83c-0.45-0.18-0.93-0.27-1.43-0.27c-1.13,0-2.04,0.36-2.75,1.07
			c-0.7,0.71-1.06,1.64-1.06,2.79c0,0.57,0.09,1.09,0.26,1.55c0.17,0.46,0.43,0.87,0.79,1.23c0.35,0.35,0.75,0.61,1.2,0.8
			c0.45,0.18,0.93,0.27,1.45,0.27c0.5,0,0.99-0.08,1.46-0.25c0.47-0.17,0.93-0.42,1.35-0.75v0.92c-0.43,0.26-0.88,0.46-1.36,0.61
			c-0.48,0.14-0.95,0.21-1.42,0.21c-0.63,0-1.23-0.11-1.81-0.34c-0.57-0.23-1.07-0.54-1.48-0.95c-0.43-0.42-0.75-0.91-0.96-1.46
			c-0.22-0.55-0.33-1.16-0.33-1.82c0-0.65,0.11-1.26,0.34-1.82c0.22-0.56,0.55-1.05,0.97-1.46c0.41-0.4,0.9-0.71,1.48-0.94
			c0.58-0.23,1.18-0.34,1.8-0.34c0.56,0,1.07,0.08,1.54,0.23c0.48,0.15,0.91,0.38,1.29,0.69L26.62,55.93z"/>
		<path d="M31.99,63.04v-8.72h4.32v0.75h-3.53v2.72h3.53v0.75h-3.53v3.75h3.53v0.75H31.99z"/>
		<path d="M41.91,63.04v-8.72h0.79v7.97h2.99v0.75H41.91z"/>
		<path d="M50.6,63.04v-8.72h0.79v7.97h2.99v0.75H50.6z"/>
		<path d="M59.29,63.04v-8.72h4.32v0.75h-3.53v2.72h3.53v0.75h-3.53v3.75h3.53v0.75H59.29z"/>
		<path d="M69.21,63.04v-9.09l6.18,7.3v-6.93h0.74v8.97l-6.16-7.31v7.05H69.21z"/>
		<path d="M88.95,55.93c-0.43-0.37-0.88-0.65-1.33-0.83c-0.45-0.18-0.93-0.27-1.43-0.27c-1.13,0-2.04,0.36-2.75,1.07
			c-0.7,0.71-1.06,1.64-1.06,2.79c0,0.57,0.09,1.09,0.26,1.55c0.17,0.46,0.43,0.87,0.79,1.23c0.35,0.35,0.75,0.61,1.2,0.8
			c0.45,0.18,0.93,0.27,1.45,0.27c0.5,0,0.99-0.08,1.46-0.25c0.47-0.17,0.93-0.42,1.35-0.75v0.92c-0.43,0.26-0.88,0.46-1.36,0.61
			c-0.48,0.14-0.95,0.21-1.42,0.21c-0.63,0-1.23-0.11-1.81-0.34c-0.57-0.23-1.07-0.54-1.48-0.95c-0.43-0.42-0.75-0.91-0.97-1.46
			c-0.22-0.55-0.33-1.16-0.33-1.82c0-0.65,0.11-1.26,0.33-1.82c0.23-0.56,0.55-1.05,0.97-1.46c0.41-0.4,0.9-0.71,1.48-0.94
			c0.58-0.23,1.18-0.34,1.8-0.34c0.56,0,1.07,0.08,1.54,0.23c0.47,0.15,0.91,0.38,1.29,0.69L88.95,55.93z"/>
		<path d="M94.33,63.04v-8.72h4.32v0.75h-3.53v2.72h3.53v0.75h-3.53v3.75h3.53v0.75H94.33z"/>
		<path d="M111.4,63.04v-8.72h0.79v8.72H111.4z"/>
		<path d="M118.03,63.04v-9.09l6.18,7.3v-6.93h0.74v8.97l-6.16-7.31v7.05H118.03z"/>
		<path d="M137.94,63.04v-8.72h1.51c0.66,0,1.14,0.03,1.43,0.09c0.29,0.06,0.54,0.17,0.75,0.33c0.29,0.22,0.51,0.49,0.66,0.8
			c0.15,0.32,0.23,0.66,0.23,1.05c0,0.47-0.12,0.86-0.36,1.19c-0.24,0.33-0.57,0.54-1,0.64c0.56,0.08,1,0.31,1.32,0.67
			c0.32,0.37,0.48,0.83,0.48,1.39c0,0.41-0.06,0.77-0.18,1.09c-0.12,0.32-0.31,0.59-0.56,0.82c-0.25,0.24-0.56,0.41-0.92,0.5
			c-0.36,0.1-0.96,0.15-1.83,0.15H137.94z M138.73,58.2h0.99c0.72,0,1.24-0.12,1.54-0.36c0.3-0.24,0.45-0.64,0.45-1.19
			c0-0.6-0.14-1.02-0.44-1.27c-0.29-0.25-0.81-0.37-1.55-0.37h-0.99V58.2z M138.73,62.36h1.01c0.57,0,0.97-0.02,1.19-0.07
			c0.22-0.05,0.4-0.13,0.55-0.24c0.19-0.14,0.33-0.34,0.45-0.59c0.11-0.25,0.17-0.52,0.17-0.81c0-0.35-0.06-0.65-0.18-0.92
			c-0.12-0.26-0.29-0.46-0.51-0.59c-0.15-0.09-0.33-0.15-0.53-0.19c-0.2-0.04-0.52-0.06-0.96-0.06h-0.17h-1.01V62.36z"/>
		<path d="M147.16,63.04l3.83-9.06l3.67,9.06h-0.86l-1.12-2.96h-3.57l-1.15,2.96H147.16z M149.38,59.41h3.04l-1.49-3.79
			L149.38,59.41z"/>
		<path d="M159.28,63.04v-9.09l6.18,7.3v-6.93h0.74v8.97l-6.16-7.31v7.05H159.28z"/>
		<path d="M172.02,63.04v-8.72h0.79v4.09l3.94-4.09h1.04l-4.13,4.17l4.33,4.55h-1.15l-4.02-4.42v4.42H172.02z"/>
		<path d="M182.68,63.04v-8.72h0.79v8.72H182.68z"/>
		<path d="M189.31,63.04v-9.09l6.18,7.3v-6.93h0.74v8.97l-6.16-7.31v7.05H189.31z"/>
		<path d="M209.2,56.52c-0.35-0.55-0.79-0.96-1.3-1.24c-0.52-0.28-1.1-0.42-1.75-0.42c-1.08,0-1.96,0.37-2.64,1.09
			c-0.68,0.73-1.02,1.68-1.02,2.83c0,0.52,0.09,1.01,0.27,1.47c0.18,0.46,0.45,0.87,0.79,1.22c0.35,0.35,0.74,0.62,1.17,0.79
			c0.43,0.18,0.91,0.26,1.42,0.26c0.98,0,1.77-0.29,2.39-0.86c0.61-0.57,0.93-1.32,0.94-2.25h-3.01v-0.69h3.87v0.1
			c0,1.39-0.38,2.48-1.14,3.26c-0.76,0.79-1.8,1.18-3.13,1.18c-1.32,0-2.39-0.42-3.21-1.26c-0.82-0.84-1.23-1.94-1.23-3.31
			c0-0.63,0.1-1.22,0.31-1.78c0.21-0.55,0.5-1.04,0.89-1.45c0.42-0.45,0.9-0.78,1.43-1.01c0.53-0.22,1.12-0.33,1.77-0.33
			c0.89,0,1.65,0.16,2.28,0.48c0.63,0.32,1.12,0.79,1.46,1.41L209.2,56.52z"/>
	</g>
	<g>
		<path d="M0.36,42.63v-10.4H1.3v9.52h3.58v0.89H0.36z"/>
		<path d="M33.37,42.63v-10.4h0.93v10.4H33.37z"/>
		<path d="M68.65,43.03l-3.66-8.36l-0.79,7.96h-0.97l1.42-10.87l4,9.28l4.14-9.28l1.34,10.87h-0.98l-0.77-7.96L68.65,43.03z"/>
		<path d="M103.07,42.63v-10.4h0.94v10.4H103.07z"/>
		<path d="M135.45,42.63V33.1h-2.87v-0.87h6.68v0.87h-2.87v9.53H135.45z"/>
		<path d="M167.83,42.63v-10.4h5.15v0.87h-4.22v3.28h4.22v0.88h-4.22v4.49h4.22v0.89H167.83z"/>
		<path d="M203.24,33.03h0.85h0.18c1.19,0,2.02,0.06,2.51,0.18c0.48,0.13,0.88,0.34,1.21,0.64c0.44,0.39,0.77,0.88,1,1.48
			c0.22,0.6,0.33,1.31,0.33,2.1c0,0.77-0.11,1.47-0.33,2.07c-0.23,0.6-0.55,1.11-0.99,1.52c-0.32,0.29-0.7,0.49-1.15,0.6
			c-0.46,0.12-1.22,0.19-2.29,0.19h-1.33V33.03z M203.92,42.63h0.33c1.28,0,2.21-0.07,2.79-0.22c0.59-0.14,1.09-0.39,1.55-0.73
			c0.57-0.44,1.01-1.02,1.31-1.75c0.31-0.73,0.46-1.56,0.46-2.49c0-0.93-0.15-1.76-0.46-2.5c-0.3-0.72-0.74-1.31-1.33-1.77
			c-0.43-0.34-0.95-0.59-1.55-0.73c-0.61-0.14-1.64-0.21-3.09-0.21h-1.61v10.4H203.92z"/>
	</g>
</g>
</svg>
