<?xml version="1.0" encoding="utf-8"?>
<!-- Generator: Adobe Illustrator 23.0.1, SVG Export Plug-In . SVG Version: 6.00 Build 0)  -->
<svg version="1.1" id="Layer_1" xmlns="http://www.w3.org/2000/svg" xmlns:xlink="http://www.w3.org/1999/xlink" x="0px" y="0px"
	 viewBox="0 0 171.04 67.24" style="enable-background:new 0 0 171.04 67.24;" xml:space="preserve">
<style type="text/css">
	.st0{fill:#BEC0C2;}
	.st1{fill:#19A1A2;}
	.st2{fill:url(#SVGID_1_);}
	.st3{fill:#FFFFFF;}
	.st4{fill:url(#SVGID_2_);}
	.st5{fill:#FFFFFF;stroke:#19A1A2;stroke-width:0.8202;stroke-miterlimit:10;}
	.st6{fill:none;stroke:#999B9E;stroke-width:1.0674;stroke-miterlimit:10;}
	.st7{fill:none;stroke:#999B9E;stroke-width:1.1562;stroke-miterlimit:10;}
	.st8{fill:#29C2E3;}
	.st9{fill:#8CC749;}
	.st10{fill:#FEE000;}
	.st11{fill:#EE203B;}
	.st12{fill:#636466;}
	.st13{fill:#00AAB1;}
	.st14{font-family:'ROBOTECHGP';}
	.st15{font-size:13.9047px;}
	.st16{fill:#ED1C24;}
	.st17{fill:#2E3192;}
	.st18{fill:none;stroke:#ED1C24;stroke-width:0.8155;stroke-miterlimit:10;}
	.st19{fill:#EC1C24;}
	.st20{fill:none;stroke:#19A1A2;stroke-width:0.9731;stroke-miterlimit:10;}
	.st21{fill:#034EA2;}
	.st22{fill:#95B6DF;stroke:#000000;stroke-width:0.5651;}
	.st23{fill:none;stroke:#000000;stroke-width:0.5651;}
</style>
<g>
	<g>
		<g>
			<polyline class="st8" points="23.48,52.09 46.26,39.36 17.37,0 39.63,38.91 23.72,51.97 			"/>
			<polyline class="st9" points="55.79,52.09 33.01,39.36 61.9,0 39.64,38.91 55.54,51.97 			"/>
			<polyline class="st10" points="46.26,39.36 23.48,52.09 23.72,51.97 39.63,38.91 			"/>
			<polygon class="st11" points="33.01,39.36 61.9,0 39.64,38.91 			"/>
		</g>
		<g>
			<path class="st12" d="M19.97,51.02H0V22.78h19.36v2.7H2.98v9.04h13.43v2.7H2.98v11.09h16.98V51.02z"/>
			<path class="st12" d="M60.75,51.02h-2.98V22.78h2.98v11.74h16.78V22.78h2.98v28.24h-2.98v-13.8H60.75V51.02z"/>
			<path class="st12" d="M91.33,26.49c2.72-2.8,6.11-4.19,10.17-4.19c4.04,0,7.41,1.4,10.13,4.19c2.72,2.8,4.07,6.27,4.07,10.41
				c0,4.17-1.36,7.65-4.07,10.45c-2.69,2.77-6.07,4.16-10.13,4.16c-4.09,0-7.48-1.39-10.17-4.16c-2.69-2.77-4.03-6.25-4.03-10.45
				C87.3,32.73,88.64,29.26,91.33,26.49z M93.55,45.33c2.12,2.26,4.77,3.39,7.95,3.39c3.17,0,5.82-1.13,7.95-3.39
				c2.15-2.28,3.23-5.1,3.23-8.43c0-3.33-1.07-6.14-3.23-8.43c-2.12-2.26-4.77-3.39-7.95-3.39c-3.17,0-5.82,1.13-7.95,3.39
				c-2.15,2.29-3.23,5.1-3.23,8.43C90.32,40.24,91.4,43.05,93.55,45.33z"/>
			<path class="st12" d="M125.54,51.02h-2.99V22.78h12.63c2.74,0,4.92,0.69,6.52,2.08c1.6,1.38,2.4,3.25,2.4,5.59
				c0,2.02-0.58,3.7-1.75,5.04c-1.17,1.35-2.8,2.19-4.9,2.54l9.12,12.99h-3.51l-8.87-12.71h-8.63V51.02z M125.54,25.49v10.13h9.48
				c1.94,0,3.44-0.44,4.5-1.31c1.06-0.87,1.59-2.12,1.59-3.73c0-1.62-0.54-2.86-1.62-3.75c-1.07-0.89-2.57-1.33-4.48-1.33H125.54z"
				/>
			<path class="st12" d="M161.2,51.02h-2.99V25.49h-9.72v-2.7h22.55v2.7h-9.84V51.02z"/>
		</g>
	</g>
	<text transform="matrix(1 0 0 1 108.3306 64.5615)" class="st13 st14 st15">do better</text>
</g>
</svg>
