<?xml version="1.0" encoding="utf-8"?>
<!-- Generator: Adobe Illustrator 23.0.1, SVG Export Plug-In . SVG Version: 6.00 Build 0)  -->
<svg version="1.1" id="Layer_1" xmlns="http://www.w3.org/2000/svg" xmlns:xlink="http://www.w3.org/1999/xlink" x="0px" y="0px"
	 viewBox="0 0 369.84 105.31" style="enable-background:new 0 0 369.84 105.31;" xml:space="preserve">
<style type="text/css">
	.st0{fill:#BEC0C2;}
	.st1{fill:#19A1A2;}
	.st2{fill:url(#SVGID_1_);}
	.st3{fill:#FFFFFF;}
	.st4{fill:url(#SVGID_2_);}
	.st5{fill:#FFFFFF;stroke:#19A1A2;stroke-width:0.8202;stroke-miterlimit:10;}
	.st6{fill:none;stroke:#999B9E;stroke-width:1.0674;stroke-miterlimit:10;}
	.st7{fill:none;stroke:#999B9E;stroke-width:1.1562;stroke-miterlimit:10;}
	.st8{fill:#29C2E3;}
	.st9{fill:#8CC749;}
	.st10{fill:#FEE000;}
	.st11{fill:#EE203B;}
	.st12{fill:#636466;}
	.st13{fill:#ED1C24;}
	.st14{fill:#2E3192;}
	.st15{fill:none;stroke:#ED1C24;stroke-width:0.8155;stroke-miterlimit:10;}
	.st16{fill:#EC1C24;}
	.st17{fill:none;stroke:#19A1A2;stroke-width:0.9731;stroke-miterlimit:10;}
	.st18{fill:#034EA2;}
	.st19{fill:#95B6DF;stroke:#000000;stroke-width:0.5651;}
	.st20{fill:none;stroke:#000000;stroke-width:0.5651;}
</style>
<g>
	<g>
		<g>
			<path class="st16" d="M124.65,15.47h3.63c3.24,0,4.45,1.25,4.45,3.34v0.69c0,2.16-0.89,2.82-1.94,3.11
				c1.13,0.26,2.36,0.99,2.36,3.08v1.14c0,2.68-1.26,4.01-4.81,4.01h-3.7V15.47z M128.19,21.97c1.86,0,2.43-0.56,2.43-2.34v-0.69
				c0-1.39-0.7-2.08-2.49-2.08h-1.31v5.11H128.19z M126.82,29.45h1.34c2.24,0,2.8-0.79,2.8-2.66v-1.06c0-1.67-0.79-2.4-2.8-2.4
				h-1.33V29.45z"/>
			<path class="st16" d="M135.47,30.83V14.79h2.22v16.04H135.47z"/>
			<path class="st16" d="M148.46,22.45v4.9c0,2.54-1.63,3.67-4.18,3.67c-2.58,0-4.1-1.11-4.1-3.61v-5c0-2.25,1.61-3.47,4.2-3.47
				C147.04,18.94,148.46,20.22,148.46,22.45z M142.4,22.4v5.06c0,1.27,0.58,2.09,1.91,2.09c1.23,0,1.9-0.63,1.9-2.11v-5.05
				c0-1.15-0.52-1.99-1.9-1.99C142.98,20.4,142.4,21.12,142.4,22.4z"/>
			<path class="st16" d="M158.76,22.45v4.9c0,2.54-1.63,3.67-4.18,3.67c-2.58,0-4.1-1.11-4.1-3.61v-5c0-2.25,1.61-3.47,4.2-3.47
				C157.34,18.94,158.76,20.22,158.76,22.45z M152.71,22.4v5.06c0,1.27,0.58,2.09,1.91,2.09c1.23,0,1.9-0.63,1.9-2.11v-5.05
				c0-1.15-0.52-1.99-1.9-1.99C153.28,20.4,152.71,21.12,152.71,22.4z"/>
			<path class="st16" d="M169.06,14.79v13.02c0,1.39,0,2.36,0.03,3.02h-2.11c-0.05-0.22-0.09-0.87-0.09-1.15
				c-0.41,0.72-1.14,1.34-2.77,1.34c-2.68,0-3.34-1.56-3.34-3.81v-4.8c0-2.07,1.11-3.47,3.58-3.47c1.36,0,2.14,0.41,2.49,0.88v-5.03
				H169.06z M163.01,22.51v4.75c0,1.49,0.5,2.26,1.78,2.26c1.66,0,2.05-1.17,2.05-2.78v-3.85c0-1.29-0.17-2.45-1.98-2.45
				C163.54,20.44,163.01,21.24,163.01,22.51z"/>
			<path class="st16" d="M176.29,15.47h3.78c4.5,0,5.07,2.05,5.07,4.49v6.07c0,2.36-0.49,4.8-5.21,4.8h-3.64V15.47z M178.51,29.41
				h1.26c2.53,0,3.12-1.05,3.12-3.06v-6.58c0-1.77-0.43-2.86-3.1-2.86h-1.28V29.41z"/>
			<path class="st16" d="M195.54,22.45v4.9c0,2.54-1.63,3.67-4.18,3.67c-2.58,0-4.1-1.11-4.1-3.61v-5c0-2.25,1.61-3.47,4.2-3.47
				C194.12,18.94,195.54,20.22,195.54,22.45z M189.49,22.4v5.06c0,1.27,0.58,2.09,1.91,2.09c1.23,0,1.9-0.63,1.9-2.11v-5.05
				c0-1.15-0.52-1.99-1.9-1.99C190.06,20.4,189.49,21.12,189.49,22.4z"/>
			<path class="st16" d="M198.01,22.69c0-2.35,0-2.99-0.03-3.56h2.11c0.05,0.26,0.09,0.67,0.09,1.17c0.47-0.86,1.41-1.35,2.91-1.35
				c1.74,0,3.13,0.73,3.13,2.88v9.01h-2.22v-8.69c0-1.13-0.52-1.71-1.67-1.71c-1.33,0-2.11,0.49-2.11,2.7v7.69h-2.22V22.69z"/>
			<path class="st16" d="M216.5,28.81c0,0.8,0.02,1.68,0.06,2.03h-2.06c-0.08-0.28-0.15-0.75-0.17-0.95
				c-0.51,0.87-1.49,1.14-2.6,1.14c-2.3,0-3.21-1.5-3.21-3.31V27.5c0-2.65,2.23-3.58,5.06-3.58c0.22,0,0.41,0,0.69,0v-1.85
				c0-1.06-0.24-1.73-1.49-1.73c-1.23,0-1.57,0.69-1.57,1.61v0.31h-2.19v-0.29c0-1.63,0.87-3.02,3.84-3.02c2.77,0,3.64,1.28,3.64,3
				V28.81z M214.33,25.22c-0.19,0-0.58,0-0.77,0c-1.8,0-2.87,0.56-2.87,2.25v0.2c0,1.04,0.44,1.89,1.68,1.89
				c1.46,0,1.96-0.86,1.96-2.61V25.22z"/>
			<path class="st16" d="M217.89,19.13h1.82v-2.88h2.2v2.88h2.24v1.45h-2.24v7.86c0,0.6,0.14,1.18,1.15,1.18c0.3,0,0.77-0.02,1-0.07
				v1.27c-0.48,0.14-1.18,0.18-1.72,0.18c-1.54,0-2.62-0.47-2.62-2.26v-8.16h-1.82V19.13z"/>
			<path class="st16" d="M225.76,19.13h2.22v11.71h-2.22V19.13z M225.78,14.79H228v2.37h-2.22V14.79z"/>
			<path class="st16" d="M238.75,22.45v4.9c0,2.54-1.63,3.67-4.18,3.67c-2.58,0-4.1-1.11-4.1-3.61v-5c0-2.25,1.61-3.47,4.2-3.47
				C237.33,18.94,238.75,20.22,238.75,22.45z M232.7,22.4v5.06c0,1.27,0.58,2.09,1.91,2.09c1.24,0,1.9-0.63,1.9-2.11v-5.05
				c0-1.15-0.52-1.99-1.9-1.99C233.27,20.4,232.7,21.12,232.7,22.4z"/>
			<path class="st16" d="M241.22,22.69c0-2.35,0-2.99-0.03-3.56h2.11c0.04,0.26,0.09,0.67,0.09,1.17c0.47-0.86,1.41-1.35,2.91-1.35
				c1.74,0,3.13,0.73,3.13,2.88v9.01h-2.22v-8.69c0-1.13-0.52-1.71-1.67-1.71c-1.33,0-2.11,0.49-2.11,2.7v7.69h-2.22V22.69z"/>
			<path class="st16" d="M92.11,49.66v7.17h-2.22V41.47h3.64c3.13,0,4.67,1,4.67,3.54v0.7c0,2.09-1,2.94-2.12,3.23
				c1.32,0.36,1.94,1.1,1.94,3.15c0,1.31-0.03,3.77,0.2,4.74h-2.16c-0.26-0.96-0.22-3.54-0.22-4.62c0-1.99-0.38-2.56-2.45-2.56
				H92.11z M92.11,48.27h1.36c1.98,0,2.5-0.84,2.5-2.49V45.1c0-1.4-0.52-2.24-2.61-2.24h-1.25V48.27z"/>
			<path class="st16" d="M102.33,51.32v1.91c0,1.16,0.31,2.38,1.88,2.38c1.51,0,1.79-0.9,1.79-2.02v-0.1h2.18v0.08
				c0,1.36-0.43,3.45-3.95,3.45c-3.32,0-4.07-1.6-4.07-3.98v-4.36c0-1.77,0.84-3.73,4.1-3.73c3.06,0,3.96,1.67,3.96,3.74
				c0,0.64,0,1.97,0,2.64H102.33z M106.08,49.98v-1.46c0-1.09-0.24-2.17-1.83-2.17c-1.5,0-1.9,0.91-1.9,2.18v1.45H106.08z"/>
			<path class="st16" d="M118.4,40.79v13.02c0,1.39,0,2.36,0.03,3.02h-2.11c-0.05-0.22-0.09-0.87-0.09-1.15
				c-0.41,0.72-1.14,1.34-2.77,1.34c-2.68,0-3.34-1.56-3.34-3.81v-4.8c0-2.07,1.11-3.47,3.58-3.47c1.36,0,2.14,0.41,2.49,0.88v-5.03
				H118.4z M112.35,48.51v4.75c0,1.49,0.5,2.26,1.78,2.26c1.66,0,2.05-1.17,2.05-2.78v-3.85c0-1.29-0.17-2.45-1.98-2.45
				C112.88,46.44,112.35,47.24,112.35,48.51z"/>
			<path class="st16" d="M129.45,53.67c0,1.52,0,2.61,0.03,3.16h-2.11c-0.05-0.22-0.09-0.8-0.09-1.22c-0.49,1.06-1.49,1.4-2.85,1.4
				c-1.31,0-3.09-0.37-3.09-2.99v-8.9h2.22v8.47c0,1.39,0.51,1.93,1.69,1.93c1.12,0,2-0.5,2-2.73v-7.68h2.22V53.67z"/>
			<path class="st16" d="M139.72,53.13v0.16c0,2.02-0.7,3.72-3.95,3.72c-3.1,0-3.86-1.58-3.86-3.95v-4.54c0-1.98,0.98-3.58,4-3.58
				c3.25,0,3.81,1.76,3.81,3.32v0.47h-2.21v-0.4c0-1.06-0.24-1.98-1.65-1.98c-1.23,0-1.72,0.68-1.72,2.07v5.02
				c0,1.06,0.27,2.17,1.68,2.17c1.26,0,1.69-0.62,1.69-2.1v-0.37H139.72z"/>
			<path class="st16" d="M143.61,51.32v1.91c0,1.16,0.31,2.38,1.88,2.38c1.51,0,1.79-0.9,1.79-2.02v-0.1h2.18v0.08
				c0,1.36-0.43,3.45-3.95,3.45c-3.32,0-4.07-1.6-4.07-3.98v-4.36c0-1.77,0.84-3.73,4.1-3.73c3.06,0,3.96,1.67,3.96,3.74
				c0,0.64,0,1.97,0,2.64H143.61z M147.35,49.98v-1.46c0-1.09-0.24-2.17-1.83-2.17c-1.5,0-1.9,0.91-1.9,2.18v1.45H147.35z"/>
			<path class="st16" d="M153.17,53.35v0.51c0,1.14,0.61,1.74,1.75,1.74c1.21,0,1.69-0.56,1.69-1.63c0-1.13-0.45-1.67-2.26-2.55
				c-2.13-1.03-3.12-1.86-3.12-3.48c0-1.73,1.14-3,3.73-3c2.82,0,3.68,1.32,3.68,3.08v0.54h-2.16v-0.65c0-1-0.39-1.56-1.54-1.56
				c-1.06,0-1.49,0.54-1.49,1.44c0,0.91,0.38,1.31,1.97,2.09c2.34,1.13,3.44,1.94,3.44,3.87c0,2.12-1.3,3.26-4.03,3.26
				c-3.11,0-3.9-1.52-3.9-3.14v-0.53H153.17z"/>
			<path class="st16" d="M167.57,49.66v7.17h-2.22V41.47h3.64c3.13,0,4.67,1,4.67,3.54v0.7c0,2.09-1,2.94-2.12,3.23
				c1.32,0.36,1.94,1.1,1.94,3.15c0,1.31-0.03,3.77,0.2,4.74h-2.16c-0.26-0.96-0.22-3.54-0.22-4.62c0-1.99-0.38-2.56-2.45-2.56
				H167.57z M167.57,48.27h1.36c1.98,0,2.5-0.84,2.5-2.49V45.1c0-1.4-0.52-2.24-2.61-2.24h-1.25V48.27z"/>
			<path class="st16" d="M176.07,45.13h2.22v11.71h-2.22V45.13z M176.09,40.79h2.22v2.37h-2.22V40.79z"/>
			<path class="st16" d="M182.55,53.35v0.51c0,1.14,0.61,1.74,1.75,1.74c1.21,0,1.69-0.56,1.69-1.63c0-1.13-0.45-1.67-2.26-2.55
				c-2.13-1.03-3.12-1.86-3.12-3.48c0-1.73,1.14-3,3.73-3c2.82,0,3.68,1.32,3.68,3.08v0.54h-2.16v-0.65c0-1-0.39-1.56-1.54-1.56
				c-1.06,0-1.49,0.54-1.49,1.44c0,0.91,0.38,1.31,1.97,2.09c2.34,1.13,3.44,1.94,3.44,3.87c0,2.12-1.3,3.26-4.03,3.26
				c-3.11,0-3.9-1.52-3.9-3.14v-0.53H182.55z"/>
			<path class="st16" d="M192.64,50.6h0.05c0.77-1.3,2.55-4,3.48-5.48h2.34l-3,4.29l3.37,7.42h-2.43L193.99,51l-1.35,1.89v3.94
				h-2.21V40.79h2.21V50.6z"/>
			<path class="st16" d="M212.01,48.45v4.9c0,2.54-1.63,3.67-4.18,3.67c-2.58,0-4.1-1.11-4.1-3.61v-5c0-2.25,1.61-3.47,4.2-3.47
				C210.59,44.94,212.01,46.22,212.01,48.45z M205.96,48.4v5.06c0,1.27,0.58,2.09,1.91,2.09c1.23,0,1.9-0.63,1.9-2.11v-5.05
				c0-1.15-0.52-1.99-1.9-1.99C206.53,46.4,205.96,47.12,205.96,48.4z"/>
			<path class="st16" d="M214.7,56.83V46.58h-1.68v-1.45h1.68v-1.65c0-1.43,0.73-2.79,3.26-2.79c0.38,0,0.81,0.02,1.06,0.08v1.5
				c-0.27-0.04-0.46-0.05-0.72-0.05c-1.14,0-1.39,0.56-1.39,1.44v1.47h2.04v1.45h-2.04v10.26H214.7z"/>
			<path class="st16" d="M232.61,52.42v0.52c0,1.95-0.48,4.09-4.25,4.09c-3.61,0-4.23-1.89-4.23-4.14v-7.81
				c0-2.46,1.43-3.81,4.26-3.81c3.5,0,4.13,1.83,4.13,3.84v0.6h-2.25v-0.72c0-1.22-0.26-2.23-1.91-2.23c-1.56,0-1.96,0.91-1.96,2.27
				V53c0,1.54,0.46,2.55,2.02,2.55c1.63,0,1.92-1.04,1.92-2.49v-0.64H232.61z"/>
			<path class="st16" d="M242.03,54.81c0,0.8,0.02,1.68,0.06,2.03h-2.06c-0.08-0.28-0.15-0.75-0.17-0.95
				c-0.51,0.87-1.49,1.14-2.6,1.14c-2.3,0-3.21-1.5-3.21-3.31V53.5c0-2.65,2.23-3.58,5.06-3.58c0.22,0,0.41,0,0.69,0v-1.85
				c0-1.06-0.24-1.73-1.49-1.73c-1.23,0-1.57,0.69-1.57,1.61v0.31h-2.19v-0.29c0-1.63,0.87-3.02,3.84-3.02c2.77,0,3.64,1.28,3.64,3
				V54.81z M239.85,51.22c-0.19,0-0.58,0-0.78,0c-1.8,0-2.87,0.56-2.87,2.25v0.2c0,1.04,0.44,1.89,1.68,1.89
				c1.46,0,1.96-0.86,1.96-2.61V51.22z"/>
			<path class="st16" d="M244.98,48.69c0-2.35,0-2.99-0.03-3.56h2.11c0.04,0.26,0.09,0.67,0.09,1.17c0.47-0.86,1.41-1.35,2.91-1.35
				c1.74,0,3.13,0.73,3.13,2.88v9.01h-2.22v-8.69c0-1.13-0.52-1.71-1.67-1.71c-1.33,0-2.11,0.49-2.11,2.7v7.69h-2.22V48.69z"/>
			<path class="st16" d="M263.49,53.13v0.16c0,2.02-0.7,3.72-3.95,3.72c-3.1,0-3.86-1.58-3.86-3.95v-4.54c0-1.98,0.98-3.58,4-3.58
				c3.25,0,3.81,1.76,3.81,3.32v0.47h-2.21v-0.4c0-1.06-0.24-1.98-1.65-1.98c-1.23,0-1.72,0.68-1.72,2.07v5.02
				c0,1.06,0.27,2.17,1.68,2.17c1.26,0,1.69-0.62,1.69-2.1v-0.37H263.49z"/>
			<path class="st16" d="M267.37,51.32v1.91c0,1.16,0.31,2.38,1.88,2.38c1.51,0,1.79-0.9,1.79-2.02v-0.1h2.18v0.08
				c0,1.36-0.43,3.45-3.95,3.45c-3.32,0-4.07-1.6-4.07-3.98v-4.36c0-1.77,0.84-3.73,4.1-3.73c3.07,0,3.96,1.67,3.96,3.74
				c0,0.64,0,1.97,0,2.64H267.37z M271.11,49.98v-1.46c0-1.09-0.24-2.17-1.83-2.17c-1.5,0-1.9,0.91-1.9,2.18v1.45H271.11z"/>
			<path class="st16" d="M275.61,49.11c0-1.89,0.01-2.95-0.03-3.98h2.12c0.03,0.31,0.08,1.04,0.08,1.83
				c0.59-1.44,1.96-1.96,3.35-1.99v2.02c-1.96,0.01-3.29,0.85-3.29,2.96v6.88h-2.22V49.11z"/>
			<path class="st16" d="M281.34,59.1c0.92-1.71,1.51-3.77,1.56-5.44h2.04c-0.06,1.88-0.91,4.12-1.91,5.44H281.34z"/>
			<path class="st16" d="M54.44,67.47h2.22v6.37H61v-6.37h2.22v15.36H61v-7.49h-4.34v7.49h-2.22V67.47z"/>
			<path class="st16" d="M67.34,71.13c1.05,4.26,2.05,8.3,2.2,9.66h0.06c0.31-1.89,1.37-5.65,2.34-9.66h2.24l-3.53,12.33
				c-0.94,3.26-2.28,3.48-4.02,3.48c-0.41,0-0.85-0.05-1.17-0.09l0.03-1.5c0.12,0.03,0.58,0.07,0.88,0.07
				c1.16,0,1.65-0.37,2.09-2.16l-3.49-12.14H67.34z"/>
			<path class="st16" d="M78.03,81.88v4.91h-2.22V74.5c0-1.6,0-2.64-0.03-3.38h2.11c0.05,0.24,0.09,0.71,0.09,1.25
				c0.4-0.78,1.25-1.43,2.88-1.43c2.18,0,3.24,1.08,3.24,3.39v4.96c0,2.59-1.36,3.72-3.47,3.72C79.04,83.02,78.36,82.42,78.03,81.88
				z M81.86,79.33V74.4c0-1.42-0.7-1.96-1.72-1.96c-1.66,0-2.13,1.02-2.13,2.55v3.83c0,1.36,0.26,2.7,1.99,2.7
				C81.34,81.52,81.86,80.72,81.86,79.33z"/>
			<path class="st16" d="M88.3,77.32v1.91c0,1.16,0.31,2.38,1.88,2.38c1.51,0,1.79-0.9,1.79-2.02v-0.1h2.18v0.08
				c0,1.36-0.43,3.45-3.95,3.45c-3.32,0-4.07-1.6-4.07-3.98v-4.36c0-1.77,0.84-3.73,4.1-3.73c3.06,0,3.96,1.67,3.96,3.74
				c0,0.64,0,1.97,0,2.64H88.3z M92.04,75.98v-1.46c0-1.09-0.24-2.17-1.83-2.17c-1.5,0-1.9,0.91-1.9,2.18v1.45H92.04z"/>
			<path class="st16" d="M96.54,75.11c0-1.89,0.01-2.95-0.03-3.98h2.12c0.03,0.31,0.08,1.04,0.08,1.83
				c0.59-1.44,1.96-1.96,3.35-1.99v2.02c-1.96,0.01-3.29,0.85-3.29,2.96v6.88h-2.22V75.11z"/>
			<path class="st16" d="M102.09,71.13h1.82v-2.88h2.2v2.88h2.24v1.45h-2.24v7.86c0,0.6,0.15,1.18,1.15,1.18c0.3,0,0.77-0.02,1-0.07
				v1.27c-0.48,0.14-1.18,0.18-1.72,0.18c-1.54,0-2.62-0.47-2.62-2.26v-8.16h-1.82V71.13z"/>
			<path class="st16" d="M111.69,77.32v1.91c0,1.16,0.31,2.38,1.88,2.38c1.51,0,1.79-0.9,1.79-2.02v-0.1h2.18v0.08
				c0,1.36-0.43,3.45-3.95,3.45c-3.32,0-4.07-1.6-4.07-3.98v-4.36c0-1.77,0.84-3.73,4.1-3.73c3.06,0,3.96,1.67,3.96,3.74
				c0,0.64,0,1.97,0,2.64H111.69z M115.43,75.98v-1.46c0-1.09-0.24-2.17-1.83-2.17c-1.5,0-1.9,0.91-1.9,2.18v1.45H115.43z"/>
			<path class="st16" d="M119.92,74.69c0-2.35,0-2.99-0.03-3.56h2.11c0.05,0.26,0.09,0.67,0.09,1.17c0.47-0.86,1.41-1.35,2.91-1.35
				c1.74,0,3.13,0.73,3.13,2.88v9.01h-2.22v-8.69c0-1.13-0.52-1.71-1.67-1.71c-1.33,0-2.11,0.49-2.11,2.7v7.69h-2.22V74.69z"/>
			<path class="st16" d="M132.39,79.35v0.51c0,1.14,0.61,1.74,1.75,1.74c1.21,0,1.69-0.56,1.69-1.63c0-1.13-0.45-1.67-2.26-2.55
				c-2.13-1.03-3.12-1.86-3.12-3.48c0-1.73,1.14-3,3.73-3c2.82,0,3.68,1.32,3.68,3.08v0.54h-2.16v-0.65c0-1-0.39-1.56-1.54-1.56
				c-1.06,0-1.49,0.54-1.49,1.44c0,0.91,0.38,1.31,1.97,2.09c2.34,1.13,3.44,1.94,3.44,3.87c0,2.12-1.3,3.26-4.03,3.26
				c-3.11,0-3.9-1.52-3.9-3.14v-0.53H132.39z"/>
			<path class="st16" d="M140.28,71.13h2.22v11.71h-2.22V71.13z M140.29,66.79h2.22v2.37h-2.22V66.79z"/>
			<path class="st16" d="M153.26,74.45v4.9c0,2.54-1.63,3.67-4.18,3.67c-2.58,0-4.1-1.11-4.1-3.61v-5c0-2.25,1.61-3.47,4.2-3.47
				C151.85,70.94,153.26,72.22,153.26,74.45z M147.21,74.4v5.06c0,1.27,0.58,2.09,1.91,2.09c1.23,0,1.9-0.63,1.9-2.11v-5.05
				c0-1.15-0.52-1.99-1.9-1.99C147.79,72.4,147.21,73.12,147.21,74.4z"/>
			<path class="st16" d="M155.73,74.69c0-2.35,0-2.99-0.03-3.56h2.11c0.05,0.26,0.09,0.67,0.09,1.17c0.47-0.86,1.41-1.35,2.91-1.35
				c1.74,0,3.13,0.73,3.13,2.88v9.01h-2.22v-8.69c0-1.13-0.52-1.71-1.67-1.71c-1.33,0-2.11,0.49-2.11,2.7v7.69h-2.22V74.69z"/>
			<path class="st16" d="M178.44,80.81c0,0.8,0.02,1.68,0.06,2.03h-2.06c-0.08-0.28-0.15-0.75-0.17-0.95
				c-0.51,0.87-1.49,1.14-2.6,1.14c-2.3,0-3.21-1.5-3.21-3.31V79.5c0-2.65,2.23-3.58,5.06-3.58c0.22,0,0.41,0,0.69,0v-1.85
				c0-1.06-0.24-1.73-1.49-1.73c-1.23,0-1.57,0.69-1.57,1.61v0.31h-2.19v-0.29c0-1.63,0.87-3.02,3.84-3.02c2.77,0,3.64,1.28,3.64,3
				V80.81z M176.27,77.22c-0.19,0-0.58,0-0.77,0c-1.8,0-2.87,0.56-2.87,2.25v0.2c0,1.04,0.44,1.89,1.68,1.89
				c1.46,0,1.96-0.86,1.96-2.61V77.22z"/>
			<path class="st16" d="M181.4,74.69c0-2.35,0-2.99-0.03-3.56h2.11c0.05,0.26,0.09,0.67,0.09,1.17c0.47-0.86,1.41-1.35,2.91-1.35
				c1.74,0,3.13,0.73,3.13,2.88v9.01h-2.22v-8.69c0-1.13-0.52-1.71-1.67-1.71c-1.33,0-2.11,0.49-2.11,2.7v7.69h-2.22V74.69z"/>
			<path class="st16" d="M200.38,66.79v13.02c0,1.39,0,2.36,0.03,3.02h-2.11c-0.05-0.22-0.09-0.87-0.09-1.15
				c-0.41,0.72-1.14,1.34-2.77,1.34c-2.68,0-3.34-1.56-3.34-3.81v-4.8c0-2.07,1.11-3.47,3.58-3.47c1.36,0,2.14,0.41,2.49,0.88v-5.03
				H200.38z M194.33,74.51v4.75c0,1.49,0.5,2.26,1.78,2.26c1.66,0,2.05-1.17,2.05-2.78v-3.85c0-1.29-0.17-2.45-1.98-2.45
				C194.86,72.44,194.33,73.24,194.33,74.51z"/>
			<path class="st16" d="M207.61,67.47h2.22v6.37h4.34v-6.37h2.22v15.36h-2.22v-7.49h-4.34v7.49h-2.22V67.47z"/>
			<path class="st16" d="M221.12,77.32v1.91c0,1.16,0.31,2.38,1.88,2.38c1.51,0,1.79-0.9,1.79-2.02v-0.1h2.18v0.08
				c0,1.36-0.43,3.45-3.95,3.45c-3.32,0-4.07-1.6-4.07-3.98v-4.36c0-1.77,0.84-3.73,4.1-3.73c3.07,0,3.96,1.67,3.96,3.74
				c0,0.64,0,1.97,0,2.64H221.12z M224.86,75.98v-1.46c0-1.09-0.24-2.17-1.83-2.17c-1.5,0-1.9,0.91-1.9,2.18v1.45H224.86z"/>
			<path class="st16" d="M236.7,80.81c0,0.8,0.02,1.68,0.06,2.03h-2.06c-0.08-0.28-0.15-0.75-0.17-0.95
				c-0.51,0.87-1.49,1.14-2.6,1.14c-2.3,0-3.21-1.5-3.21-3.31V79.5c0-2.65,2.23-3.58,5.06-3.58c0.22,0,0.41,0,0.69,0v-1.85
				c0-1.06-0.24-1.73-1.49-1.73c-1.23,0-1.57,0.69-1.57,1.61v0.31h-2.19v-0.29c0-1.63,0.87-3.02,3.84-3.02c2.77,0,3.64,1.28,3.64,3
				V80.81z M234.53,77.22c-0.19,0-0.58,0-0.78,0c-1.8,0-2.87,0.56-2.87,2.25v0.2c0,1.04,0.44,1.89,1.68,1.89
				c1.46,0,1.96-0.86,1.96-2.61V77.22z"/>
			<path class="st16" d="M239.66,75.11c0-1.89,0.01-2.95-0.03-3.98h2.12c0.03,0.31,0.08,1.04,0.08,1.83
				c0.59-1.44,1.96-1.96,3.35-1.99v2.02c-1.96,0.01-3.29,0.85-3.29,2.96v6.88h-2.22V75.11z"/>
			<path class="st16" d="M245.21,71.13h1.82v-2.88h2.2v2.88h2.24v1.45h-2.24v7.86c0,0.6,0.14,1.18,1.15,1.18c0.3,0,0.77-0.02,1-0.07
				v1.27c-0.48,0.14-1.18,0.18-1.72,0.18c-1.54,0-2.62-0.47-2.62-2.26v-8.16h-1.82V71.13z"/>
			<path class="st16" d="M257.38,67.47h3.78c4.5,0,5.07,2.05,5.07,4.49v6.07c0,2.36-0.49,4.8-5.21,4.8h-3.64V67.47z M259.6,81.41
				h1.26c2.53,0,3.12-1.05,3.12-3.06v-6.58c0-1.77-0.43-2.86-3.1-2.86h-1.28V81.41z"/>
			<path class="st16" d="M268.79,71.13H271v11.71h-2.22V71.13z M268.8,66.79h2.22v2.37h-2.22V66.79z"/>
			<path class="st16" d="M275.26,79.35v0.51c0,1.14,0.61,1.74,1.75,1.74c1.21,0,1.69-0.56,1.69-1.63c0-1.13-0.45-1.67-2.26-2.55
				c-2.13-1.03-3.12-1.86-3.12-3.48c0-1.73,1.14-3,3.74-3c2.82,0,3.68,1.32,3.68,3.08v0.54h-2.16v-0.65c0-1-0.39-1.56-1.54-1.56
				c-1.06,0-1.49,0.54-1.49,1.44c0,0.91,0.38,1.31,1.97,2.09c2.33,1.13,3.44,1.94,3.44,3.87c0,2.12-1.3,3.26-4.03,3.26
				c-3.11,0-3.91-1.52-3.91-3.14v-0.53H275.26z"/>
			<path class="st16" d="M284.87,77.32v1.91c0,1.16,0.31,2.38,1.88,2.38c1.51,0,1.79-0.9,1.79-2.02v-0.1h2.18v0.08
				c0,1.36-0.43,3.45-3.95,3.45c-3.32,0-4.07-1.6-4.07-3.98v-4.36c0-1.77,0.84-3.73,4.1-3.73c3.07,0,3.96,1.67,3.96,3.74
				c0,0.64,0,1.97,0,2.64H284.87z M288.61,75.98v-1.46c0-1.09-0.24-2.17-1.83-2.17c-1.5,0-1.9,0.91-1.9,2.18v1.45H288.61z"/>
			<path class="st16" d="M300.46,80.81c0,0.8,0.02,1.68,0.06,2.03h-2.06c-0.08-0.28-0.15-0.75-0.17-0.95
				c-0.51,0.87-1.49,1.14-2.6,1.14c-2.3,0-3.21-1.5-3.21-3.31V79.5c0-2.65,2.23-3.58,5.06-3.58c0.22,0,0.41,0,0.69,0v-1.85
				c0-1.06-0.24-1.73-1.49-1.73c-1.23,0-1.57,0.69-1.57,1.61v0.31h-2.19v-0.29c0-1.63,0.87-3.02,3.84-3.02c2.77,0,3.64,1.28,3.64,3
				V80.81z M298.28,77.22c-0.19,0-0.58,0-0.78,0c-1.8,0-2.87,0.56-2.87,2.25v0.2c0,1.04,0.44,1.89,1.68,1.89
				c1.46,0,1.96-0.86,1.96-2.61V77.22z"/>
			<path class="st16" d="M304.73,79.35v0.51c0,1.14,0.61,1.74,1.75,1.74c1.21,0,1.69-0.56,1.69-1.63c0-1.13-0.45-1.67-2.26-2.55
				c-2.13-1.03-3.12-1.86-3.12-3.48c0-1.73,1.14-3,3.74-3c2.82,0,3.68,1.32,3.68,3.08v0.54h-2.16v-0.65c0-1-0.39-1.56-1.54-1.56
				c-1.06,0-1.49,0.54-1.49,1.44c0,0.91,0.38,1.31,1.97,2.09c2.33,1.13,3.44,1.94,3.44,3.87c0,2.12-1.3,3.26-4.03,3.26
				c-3.11,0-3.91-1.52-3.91-3.14v-0.53H304.73z"/>
			<path class="st16" d="M314.34,77.32v1.91c0,1.16,0.31,2.38,1.88,2.38c1.51,0,1.79-0.9,1.79-2.02v-0.1h2.18v0.08
				c0,1.36-0.43,3.45-3.95,3.45c-3.32,0-4.07-1.6-4.07-3.98v-4.36c0-1.77,0.84-3.73,4.1-3.73c3.07,0,3.96,1.67,3.96,3.74
				c0,0.64,0,1.97,0,2.64H314.34z M318.08,75.98v-1.46c0-1.09-0.24-2.17-1.83-2.17c-1.5,0-1.9,0.91-1.9,2.18v1.45H318.08z"/>
		</g>
	</g>
</g>
<path class="st17" d="M369.36,93.3c0,6.37-5.3,11.53-11.83,11.53H12.32c-6.53,0-11.83-5.16-11.83-11.53V12.01
	c0-6.37,5.3-11.53,11.83-11.53h345.21c6.53,0,11.83,5.16,11.83,11.53V93.3z"/>
</svg>
