<?xml version="1.0" encoding="utf-8"?>
<!-- Generator: Adobe Illustrator 23.0.1, SVG Export Plug-In . SVG Version: 6.00 Build 0)  -->
<svg version="1.1" id="Layer_1" xmlns="http://www.w3.org/2000/svg" xmlns:xlink="http://www.w3.org/1999/xlink" x="0px" y="0px"
	 viewBox="0 0 58.01 78.31" style="enable-background:new 0 0 58.01 78.31;" xml:space="preserve">
<style type="text/css">
	.st0{fill:#BEC0C2;}
	.st1{fill:#19A1A2;}
	.st2{fill:url(#SVGID_1_);}
	.st3{fill:#FFFFFF;}
	.st4{fill:url(#SVGID_2_);}
	.st5{fill:#FFFFFF;stroke:#19A1A2;stroke-width:0.8202;stroke-miterlimit:10;}
	.st6{fill:none;stroke:#999B9E;stroke-width:1.0674;stroke-miterlimit:10;}
	.st7{fill:none;stroke:#999B9E;stroke-width:1.1562;stroke-miterlimit:10;}
	.st8{fill:#29C2E3;}
	.st9{fill:#8CC749;}
	.st10{fill:#FEE000;}
	.st11{fill:#EE203B;}
	.st12{fill:#636466;}
	.st13{fill:#ED1C24;}
	.st14{fill:#2E3192;}
	.st15{fill:none;stroke:#ED1C24;stroke-width:0.8155;stroke-miterlimit:10;}
	.st16{fill:#EC1C24;}
	.st17{fill:none;stroke:#19A1A2;stroke-width:0.9731;stroke-miterlimit:10;}
	.st18{fill:#034EA2;}
	.st19{fill:#95B6DF;stroke:#000000;stroke-width:0.5651;}
	.st20{fill:none;stroke:#000000;stroke-width:0.5651;}
</style>
<g>
	<path class="st3" d="M29.01,0C12.99,0,0,17.53,0,39.16s12.99,39.16,29.01,39.16s29.01-17.53,29.01-39.16S45.03,0,29.01,0"/>
	<path class="st13" d="M29.01,0C12.99,0,0,17.53,0,39.16s12.99,39.16,29.01,39.16s29.01-17.53,29.01-39.16S45.03,0,29.01,0
		 M29.01,76.36c-13.03,0-23.6-16.66-23.6-37.2c0-20.55,10.56-37.2,23.6-37.2s23.6,16.66,23.6,37.2
		C52.6,59.7,42.04,76.36,29.01,76.36"/>
	<path class="st14" d="M10.9,59.5c0.06-0.1,0.14-0.17,0.23-0.21c0.38-0.18,0.67-0.08,0.86,0.32c0.05,0.11,0.04,0.24-0.06,0.39
		c-0.09,0.15-0.2,0.25-0.32,0.31c-0.22,0.11-0.44,0.13-0.67,0.06c-0.22-0.06-0.38-0.19-0.47-0.38c-0.2-0.43-0.11-0.88,0.28-1.37
		c0.32-0.4,0.73-0.72,1.23-0.96c0.12-0.06,0.27-0.12,0.44-0.18c0.5-0.19,1.05-0.24,1.63-0.17c0.66,0.08,1.09,0.34,1.29,0.76
		l-0.33,0.76c-0.3-0.48-0.75-0.76-1.37-0.84c-0.55-0.07-1.11,0.03-1.66,0.29c-0.3,0.14-0.55,0.32-0.75,0.53
		C10.98,59.04,10.87,59.28,10.9,59.5"/>
	<path class="st14" d="M15.4,63.22c0.21-0.16,0.34-0.39,0.39-0.66c0.05-0.28,0.02-0.52-0.11-0.72l-0.02-0.03l-3.23,2.06l0.13-0.43
		c0.21-0.24,0.33-0.39,0.37-0.44c0.08-0.12,0.17-0.29,0.25-0.51c0.24-0.61,0.25-1.16,0.02-1.64l0.41-1c0.95,0.23,1.75,0.59,2.4,1.08
		l0.17-0.11l-1.29-2.02l0.23-0.82l2.81,4.42l-0.24,0.81l-1.22-1.91l-0.13,0.09c0.22,0.34,0.22,0.76,0.03,1.25
		c-0.18,0.47-0.46,0.82-0.85,1.07c-0.21,0.13-0.43,0.2-0.66,0.2c-0.26,0-0.44-0.1-0.57-0.29c-0.08-0.13-0.11-0.28-0.07-0.45
		c0.04-0.17,0.14-0.31,0.3-0.41c0.17-0.11,0.38-0.13,0.61-0.07c0.09,0.07,0.15,0.13,0.19,0.2C15.39,62.95,15.41,63.07,15.4,63.22
		 M15.31,61.38c-0.25-0.16-0.67-0.33-1.25-0.53c0.03,0.52-0.1,1.05-0.39,1.57L15.31,61.38z"/>
	<path class="st14" d="M17.55,64.82c-0.03,0.08-0.09,0.15-0.16,0.21c-0.13,0.11-0.28,0.16-0.44,0.13c-0.16-0.02-0.29-0.09-0.38-0.2
		c-0.27-0.32-0.22-0.62,0.13-0.92c0.21-0.18,0.44-0.26,0.69-0.25c0.25,0.01,0.45,0.1,0.6,0.29c0.21,0.25,0.25,0.57,0.12,0.99
		l0.8-0.67l-1.29-1.53l0.13-0.83l1.76,2.08l-0.12,0.85l-0.14-0.17l-2.46,2.08l0.15-0.83c0.28-0.23,0.46-0.41,0.53-0.53
		c0.03-0.12,0.06-0.23,0.09-0.35C17.59,65.01,17.59,64.9,17.55,64.82"/>
	<path class="st14" d="M19.6,65.07l-1.12,1.28c0.19-0.02,0.46-0.05,0.83-0.07c0.39-0.01,0.84,0.06,1.35,0.22l0.15,1.03
		c-0.83,0.38-1.46,0.81-1.88,1.29c-0.03,0.04-0.08,0.09-0.13,0.17c-0.06,0.08-0.1,0.13-0.13,0.17c-0.06,0.07-0.27,0.38-0.64,0.95
		l-0.17-0.49c0.44-0.75,0.81-1.29,1.11-1.63c0.24-0.27,0.5-0.52,0.77-0.74c-0.74-0.2-1.51-0.07-2.3,0.39l0.02-1.01l1.71-1.95
		l-0.27-0.24l-0.01-0.86l3.26,2.86l0.01,0.86L19.6,65.07z"/>
	<path class="st14" d="M18.26,70.96c0.01-0.26,0.01-0.4,0-0.42c-0.02-0.12-0.09-0.24-0.23-0.34c-0.05-0.04-0.44-0.32-1.17-0.84
		c-0.73-0.52-0.86-1.12-0.4-1.8c0.12-0.17,0.36-0.42,0.73-0.73l0.05,0.47c-0.09,0.03-0.19,0.12-0.29,0.28
		c-0.15,0.23-0.18,0.45-0.07,0.65c0.08,0.16,0.27,0.35,0.58,0.57c0.42,0.31,0.66,0.5,0.72,0.56c0.28,0.26,0.42,0.52,0.42,0.79
		l0,0.01l1.41-2.1l0.77-0.21l-2.44,3.63C18.3,71.26,18.27,71.09,18.26,70.96"/>
	<path class="st14" d="M22.97,67.59l-2.45,4.22l-0.16-0.84l2.12-3.66l-0.4-0.23l-0.21-0.86l0.95,0.55l0.08-0.23
		c0.05-0.13,0.06-0.38,0.04-0.73c-0.04-0.64-0.42-1.17-1.15-1.6c-0.59-0.34-0.95-0.42-1.07-0.21c-0.04,0.06,0.02,0.14,0.18,0.25
		c0.23,0.15,0.46,0.31,0.68,0.46c0.3,0.21,0.49,0.41,0.58,0.62c0.13,0.27,0.1,0.56-0.08,0.87c-0.05,0.09-0.13,0.19-0.23,0.3
		l-0.63-0.36c0.3-0.07,0.47-0.13,0.51-0.19c0.07-0.12-0.05-0.29-0.38-0.51l-0.55-0.36c-0.2-0.13-0.34-0.31-0.43-0.55
		c-0.11-0.27-0.1-0.52,0.04-0.76c0.15-0.25,0.45-0.36,0.9-0.32c0.37,0.03,0.68,0.12,0.94,0.27c0.24,0.14,0.5,0.38,0.78,0.72
		c0.13,0.16,0.25,0.42,0.35,0.76c0.14,0.46,0.1,1.07-0.12,1.84l0.59,0.34l0.16,0.83L22.97,67.59z"/>
	<path class="st14" d="M27.04,69.14l-1.33,4.68c-0.1-0.16-0.17-0.3-0.2-0.42c-0.01-0.04-0.03-0.2-0.06-0.47
		c-0.03-0.25-0.12-0.51-0.25-0.79c-0.14-0.28-0.3-0.5-0.47-0.64c-0.12-0.1-0.34-0.2-0.65-0.31l-0.34-1.02
		c0.4-0.26,0.89-0.54,1.45-0.82c-0.09-0.15-0.26-0.29-0.53-0.42c-0.27-0.13-0.47-0.3-0.59-0.52c-0.04-0.08-0.09-0.19-0.16-0.33
		c-0.03-0.08-0.11-0.27-0.25-0.56l4.11,1.17l0.39,0.77L27.04,69.14z M24.21,72.97c-0.14-0.04-0.24-0.13-0.31-0.27
		c-0.07-0.14-0.08-0.29-0.03-0.45c0.04-0.15,0.12-0.26,0.24-0.34c0.12-0.08,0.24-0.1,0.37-0.07c0.13,0.04,0.24,0.13,0.31,0.27
		c0.07,0.14,0.09,0.29,0.04,0.44c-0.04,0.15-0.13,0.27-0.25,0.35C24.47,72.98,24.34,73,24.21,72.97 M26.5,68.99l-1.09-0.31
		c0.12,0.21,0.3,0.6,0.52,1.18c-0.27,0.16-0.66,0.42-1.18,0.78c0.42,0.34,0.72,0.81,0.89,1.4L26.5,68.99z"/>
	<path class="st14" d="M34.84,68.52c-0.29-0.55-0.58-1.18-0.88-1.91l0.45,0.14l0.07,0.06c0.08,0.17,0.19,0.27,0.33,0.29
		c0.08-0.03,0.2-0.08,0.35-0.14c0.05-0.02,0.11-0.04,0.17-0.05l0.75,0.38l-1.05,0.43l1.8,4.4c-0.2-0.06-0.46-0.17-0.79-0.35
		l-0.87-2.27c-0.03-0.07-0.12-0.17-0.26-0.3c-0.14-0.13-0.27-0.22-0.38-0.27l-0.64,1.97l-0.82-0.01c0.05-0.13,0.1-0.27,0.15-0.41
		c0.06-0.19,0.06-0.33,0.02-0.43c-0.1-0.23-0.2-0.33-0.31-0.28c-0.04,0.02-0.11,0.08-0.2,0.18c-0.09,0.1-0.17,0.17-0.23,0.19
		c-0.08,0.03-0.18,0.02-0.3-0.05c-0.11-0.06-0.19-0.15-0.23-0.24c-0.04-0.09-0.05-0.19-0.04-0.3c0.08-0.83,0.42-1.37,1.04-1.62
		c0.3-0.12,0.63-0.12,0.97,0C34.27,68.05,34.57,68.25,34.84,68.52 M32.79,69.21c0.13-0.03,0.27,0,0.41,0.09
		c0.14,0.09,0.25,0.2,0.33,0.33l0.36-1.06c-0.18-0.1-0.37-0.11-0.55-0.04C33.03,68.67,32.84,68.89,32.79,69.21"/>
	<path class="st14" d="M38.06,63.75c-0.68-0.05-1.23,0.08-1.64,0.38c-0.41,0.3-0.57,0.78-0.49,1.44c0.02,0.13,0.04,0.22,0.06,0.25
		c0.04,0.03,0.14,0.1,0.29,0.2l0.59-0.43l0.83,0.18l-0.91,0.67l2.85,3.88l-0.83-0.17l-2.48-3.37l-0.44,0.32l-0.83-0.18l0.83-0.61
		c-0.28-0.05-0.47-0.15-0.56-0.28c-0.1-0.14-0.16-0.27-0.19-0.4c-0.14-0.85,0.05-1.46,0.55-1.83c0.68-0.5,1.61-0.61,2.79-0.33
		l0.5,0.38L38.06,63.75z"/>
	<path class="st14" d="M39.63,63.81l3.39,3.34c-0.18,0.04-0.38,0.03-0.61-0.04c-0.2-0.08-0.4-0.15-0.6-0.22
		c-0.35-0.13-0.71-0.15-1.09-0.07c-0.38,0.08-0.7,0.23-0.96,0.47l-1.08-0.23c0.1-1.08,0.32-1.99,0.67-2.74l-0.11-0.1l-1.69,1.72
		l-0.85-0.04l2.82-2.87l0.85,0.04L39.63,63.81z M39.98,64.94c-0.18,0.45-0.3,0.95-0.36,1.5c0.62-0.2,1.23-0.22,1.83-0.05
		L39.98,64.94z M41.58,67.98c-0.1,0.1-0.22,0.14-0.38,0.13c-0.16-0.01-0.29-0.07-0.4-0.18c-0.11-0.1-0.16-0.23-0.18-0.37
		c-0.01-0.14,0.02-0.26,0.12-0.35c0.09-0.1,0.22-0.14,0.37-0.13c0.15,0.01,0.28,0.06,0.39,0.17c0.11,0.1,0.17,0.23,0.19,0.37
		C41.71,67.77,41.68,67.89,41.58,67.98"/>
	<path class="st14" d="M42.02,60.55l3.99,2.75c-0.12,0.01-0.24,0.02-0.37,0.02c-0.13,0.01-0.25,0-0.36-0.03
		c-0.39-0.08-0.78-0.08-1.18,0.01C43.62,63.42,43.25,63.65,43,64l-1.09-0.01c-0.11-0.55-0.21-1.1-0.28-1.63
		c-0.1,0.05-0.25,0.23-0.46,0.53c-0.19,0.27-0.45,0.36-0.79,0.25c-0.02-0.01-0.34,0.01-0.97,0.07l2.37-3.44l0.84-0.09L42.02,60.55z
		 M41.71,61.01l-0.7,1.01c0.3-0.09,0.54-0.14,0.7-0.15c0.07,0,0.18-0.01,0.32-0.03c0.02,0,0.24-0.06,0.65-0.16L41.71,61.01z
		 M43.28,62.09c-0.53,0.08-0.79,0.13-0.8,0.13c-0.03,0.04,0.04,0.36,0.21,0.94c0.44-0.23,0.98-0.35,1.61-0.38L43.28,62.09z"/>
	<path class="st14" d="M42.91,58.99l1.52,0.76c-0.07-0.17-0.16-0.44-0.28-0.79c-0.11-0.37-0.15-0.83-0.13-1.36l0.96-0.4
		c0.58,0.71,1.15,1.21,1.72,1.49c0.04,0.02,0.11,0.05,0.2,0.09c0.09,0.04,0.16,0.06,0.2,0.09c0.08,0.04,0.44,0.17,1.08,0.38
		l-0.43,0.29c-0.84-0.24-1.46-0.46-1.86-0.66c-0.33-0.16-0.63-0.35-0.91-0.56c-0.01,0.77,0.32,1.47,0.96,2.13l-0.98,0.24l-2.32-1.16
		l-0.16,0.32l-0.83,0.22l1.95-3.87l0.83-0.22L42.91,58.99z"/>
	<path class="st14" d="M9.56,26.87c-0.08,0.62,0.11,1.19,0.57,1.69c0.41,0.46,0.91,0.75,1.52,0.88c0.39,0.08,0.75,0.07,1.08-0.03
		c0.42-0.13,0.67-0.37,0.74-0.74c0-0.01,0-0.02,0-0.02l-0.01,0c-0.14,0.16-0.29,0.23-0.46,0.19c-0.22-0.05-0.35-0.14-0.4-0.29
		c-0.04-0.12-0.03-0.29,0.02-0.52c0.02-0.12,0.11-0.21,0.25-0.28c0.14-0.07,0.27-0.09,0.38-0.07c0.22,0.05,0.38,0.17,0.5,0.36
		c0.12,0.19,0.15,0.41,0.1,0.64c-0.11,0.52-0.46,0.88-1.04,1.08c-0.48,0.17-0.99,0.2-1.53,0.09c-0.13-0.03-0.28-0.07-0.45-0.13
		c-0.5-0.17-0.94-0.48-1.33-0.94c-0.44-0.52-0.6-1.03-0.49-1.54L9.56,26.87z"/>
	<path class="st14" d="M11.09,21.74l-0.35,1.14l4.53,1.38l-0.64,0.31l-2.03-0.62c-0.11-0.03-0.24,0.01-0.41,0.14
		c-0.17,0.12-0.27,0.25-0.3,0.37c-0.06,0.2,0.09,0.53,0.44,0.99c0.37,0.48,0.55,0.78,0.53,0.9c-0.01,0.04-0.02,0.1-0.04,0.17
		c-0.07,0.22-0.13,0.34-0.19,0.35c-0.06,0.13-0.43,0.28-1.1,0.44l-0.19-0.4c0.1,0.02,0.25,0,0.42-0.05
		c0.18-0.05,0.28-0.12,0.31-0.22c0.03-0.1-0.06-0.3-0.26-0.61c-0.12-0.17-0.24-0.34-0.37-0.51c-0.65-0.14-1.06,0.05-1.24,0.55
		c-0.04,0.12-0.1,0.29-0.2,0.51c-0.08,0.12-0.23,0.22-0.46,0.29c-0.02,0.05-0.23,0.18-0.62,0.41l1.59-5.21L11.09,21.74z
		 M12.16,23.82l-1.56-0.47l-0.65,2.12c0.43-0.31,0.79-0.42,1.07-0.34c0.08,0.02,0.15,0.06,0.23,0.1c0.01-0.06-0.02-0.18-0.08-0.36
		c-0.06-0.18-0.08-0.3-0.06-0.37c0.04-0.14,0.2-0.29,0.46-0.42C11.64,24.04,11.83,23.95,12.16,23.82"/>
	<path class="st14" d="M12.88,17.78l-0.48,1.11l4.38,1.9c-0.1,0.02-0.24,0.05-0.42,0.09c-0.1,0-0.25,0.01-0.44,0.02
		c-0.47,0.06-0.91,0.22-1.31,0.49c-0.4,0.27-0.72,0.62-0.95,1.06l-1.02,0.24c-0.21-1.12-0.25-2.2-0.13-3.24l-0.29-0.13l-1.26,2.9
		l-0.62,0.25l1.93-4.45L12.88,17.78z M15.4,20.71l-2.23-0.96c-0.06,0.61-0.02,1.31,0.1,2.1C13.92,21.21,14.63,20.83,15.4,20.71"/>
	<path class="st14" d="M13.89,16.11l-0.58,1.08l4.26,2.3l-0.65,0.19l-3.05-1.65c-0.24-0.13-0.49-0.15-0.75-0.06
		c-0.26,0.09-0.44,0.28-0.55,0.55l-0.65,0.22c0.06-0.14,0.11-0.27,0.17-0.38c0.2-0.37,0.45-0.59,0.74-0.65
		c0.16-0.04,0.48-0.02,0.97,0.06c-0.61-0.18-1.23-0.44-1.87-0.79l0.22-0.1c0.28,0.11,0.52,0.13,0.74,0.08l0.35-0.65L13.89,16.11z"/>
	<path class="st14" d="M16.44,12.35l-1.65,2.41c0.13,0.04,0.22,0.05,0.28,0.04c0.13-0.11,0.27-0.22,0.4-0.33
		c0.25-0.19,0.56-0.27,0.9-0.25c0.35,0.02,0.6,0.09,0.77,0.21c0.24,0.16,0.4,0.39,0.48,0.69c0.08,0.3,0.09,0.6,0.01,0.91
		c-0.05,0.09-0.09,0.22-0.13,0.37c0.15-0.05,0.4-0.15,0.75-0.31c0.32-0.14,0.57-0.23,0.76-0.28l0.96-0.25l0.61,0.22
		c-1.44,0.22-2.69,0.81-3.73,1.79l-1.28-0.17c0.44-0.2,0.8-0.52,1.1-0.95c0.17-0.25,0.27-0.53,0.3-0.84
		c0.04-0.36-0.05-0.62-0.27-0.77c-0.17-0.12-0.34-0.16-0.53-0.14c-0.19,0.03-0.34,0.12-0.45,0.29c-0.04,0.06-0.07,0.13-0.09,0.2
		c0.17,0.12,0.28,0.3,0.33,0.54c0.05,0.24,0.02,0.44-0.11,0.62c-0.1,0.15-0.21,0.25-0.35,0.31c-0.15,0.07-0.29,0.06-0.42-0.02
		c-0.41-0.28-0.47-0.77-0.18-1.45l-0.02-0.01c-0.05-0.03-0.19-0.01-0.44,0.07l-0.85,1.25l-0.67,0.14l1.82-2.66
		c0.25-0.37,0.29-0.62,0.1-0.73c-0.09-0.05-0.21-0.02-0.36,0.11c-0.11,0.09-0.2,0.2-0.28,0.32c-0.09,0.13-0.2,0.3-0.32,0.52
		c-0.12,0.22-0.23,0.39-0.32,0.52c-0.21,0.31-0.47,0.54-0.77,0.69c-0.35,0.17-0.66,0.17-0.93-0.02c-0.26-0.18-0.32-0.36-0.19-0.55
		c0.04-0.06,0.08-0.11,0.11-0.14c-0.02,0.19,0.04,0.32,0.15,0.4c0.13,0.09,0.29,0.09,0.46,0.01c0.16-0.08,0.28-0.19,0.38-0.33
		c0.07-0.11,0.17-0.27,0.29-0.5c0.12-0.23,0.21-0.39,0.28-0.49c0.27-0.39,0.52-0.64,0.75-0.75c0.47-0.22,0.88-0.18,1.24,0.12
		l0.45-0.66L16.44,12.35z"/>
	<path class="st14" d="M22.64,7.17l-0.68,0.5l2.8,3.8l-0.23,0c-0.47-0.38-1.11-0.66-1.92-0.84c0.02,0.55-0.16,0.97-0.55,1.25
		c-0.53,0.4-1.25,0.43-2.14,0.1c-0.7-0.25-1.33-0.63-1.89-1.15l0.31-0.08c0.65,0.41,1.15,0.68,1.52,0.78
		c0.63,0.19,1.18,0.11,1.66-0.24c0.21-0.16,0.35-0.34,0.41-0.56c0.06-0.22,0.02-0.43-0.12-0.62c-0.1-0.13-0.24-0.25-0.42-0.35
		c-0.21-0.12-0.38-0.14-0.5-0.05c0.1,0.32,0.02,0.58-0.25,0.78c-0.16,0.12-0.34,0.18-0.54,0.18c-0.2,0-0.36-0.08-0.46-0.23
		c-0.12-0.17-0.14-0.36-0.04-0.58c0.08-0.18,0.22-0.34,0.41-0.48c0.36-0.27,0.77-0.36,1.23-0.28c0.46,0.08,0.81,0.29,1.07,0.64
		c0.05,0.07,0.09,0.14,0.12,0.22l0.93,0.44l-1.8-2.44l-3.76,2.77l-0.67-0.09l4.83-3.56L22.64,7.17z"/>
	<path class="st14" d="M24.9,6.46l-1.13,0.48l1.9,4.46l-0.62-0.26L23.7,7.95c-0.11-0.25-0.29-0.42-0.55-0.51
		c-0.26-0.09-0.52-0.06-0.77,0.09L21.73,7.3c0.13-0.08,0.25-0.14,0.37-0.19c0.39-0.17,0.72-0.18,0.98-0.05
		c0.15,0.07,0.39,0.29,0.72,0.65c-0.36-0.52-0.69-1.12-0.97-1.79l0.23,0.06c0.15,0.26,0.33,0.43,0.53,0.52l0.68-0.29L24.9,6.46z"/>
	<path class="st14" d="M29.43,5.62l-1.27,0.23l0.82,4.65l-0.24-0.17c-0.22-0.52-0.47-0.86-0.75-1.02c-0.39-0.23-0.67-0.35-0.84-0.38
		l0.01,0.01c0.01,0.04-0.07,0.14-0.24,0.32c-0.13,0.14-0.3,0.22-0.51,0.26c-0.33,0.06-0.6-0.02-0.81-0.24
		c-0.01-0.04-0.03-0.1-0.07-0.18c-0.04-0.08-0.06-0.14-0.07-0.18c-0.04-0.25,0.02-0.47,0.19-0.65c0.15-0.16,0.37-0.26,0.65-0.31
		c0.21-0.04,0.33-0.03,0.37,0.02c-0.08-0.37-0.26-0.64-0.55-0.78C25.96,7.08,25.7,7.02,25.36,7c-0.32-0.02-0.5-0.05-0.55-0.1
		c-0.11-0.04-0.2-0.1-0.27-0.19c-0.11-0.12-0.17-0.19-0.17-0.19c-0.01-0.01-0.2-0.13-0.57-0.38l5.07-0.89L29.43,5.62z M28.26,9.09
		L27.7,5.93l-2.24,0.4c0.51,0.27,0.79,0.42,0.87,0.47c0.32,0.21,0.54,0.44,0.66,0.68c0.18,0.39,0.28,0.67,0.29,0.85
		C27.5,8.48,27.83,8.74,28.26,9.09"/>
	<path class="st14" d="M31.34,6.03l-1.22-0.08l-0.31,4.83l-0.44-0.51l0.22-3.46c0.02-0.27-0.07-0.51-0.26-0.7
		c-0.19-0.2-0.43-0.29-0.72-0.27l-0.47-0.49c0.15-0.01,0.29-0.01,0.41,0c0.42,0.03,0.72,0.16,0.9,0.4c0.1,0.13,0.22,0.43,0.35,0.9
		c-0.09-0.63-0.11-1.31-0.07-2.03l0.18,0.16c0.02,0.3,0.1,0.53,0.24,0.7l0.73,0.05L31.34,6.03z"/>
	<path class="st14" d="M34.12,6.74c-0.23-0.05-0.5-0.06-0.82-0.02c-1.17,0.13-1.91,0.85-2.23,2.16c-0.15,0.63-0.01,1.14,0.45,1.54
		c0.04,0.04,0.1,0.06,0.19,0.09c0.09,0.02,0.13,0.02,0.12-0.01c-0.06-0.02-0.1-0.1-0.14-0.24c-0.04-0.14-0.05-0.24-0.03-0.31
		c0.03-0.13,0.12-0.23,0.27-0.31c0.15-0.07,0.29-0.09,0.43-0.05c0.11,0.03,0.2,0.08,0.24,0.16c0.18,0.15,0.24,0.34,0.18,0.57
		c-0.05,0.21-0.18,0.36-0.38,0.46c-0.2,0.1-0.42,0.12-0.65,0.07c-0.51-0.13-0.85-0.48-1.03-1.05c-0.15-0.49-0.16-0.99-0.03-1.51
		c0.19-0.78,0.69-1.45,1.51-2l-1.44-0.35l-0.36-0.57l3.35,0.82L34.12,6.74z"/>
	<path class="st14" d="M38.06,8.87l-3.52-1.85l-0.9,1.72c0.11,0,0.29-0.03,0.53-0.09c0.33-0.08,0.51-0.12,0.55-0.13
		c0.43-0.08,0.93-0.07,1.5,0l0.48,0.93c-0.76,0.51-1.29,1.05-1.6,1.63c-0.02,0.04-0.05,0.11-0.09,0.2c-0.04,0.09-0.06,0.15-0.09,0.2
		c-0.04,0.08-0.15,0.39-0.32,0.93l-0.22-0.29c0.22-0.81,0.43-1.41,0.63-1.81c0.2-0.37,0.42-0.71,0.68-1.01
		c-0.46-0.07-0.92-0.05-1.38,0.07c-0.46,0.12-0.86,0.32-1.2,0.6l-0.29-0.87l1.22-2.33l-0.44-0.23L33.4,5.89l4.43,2.33L38.06,8.87z"
		/>
	<path class="st14" d="M36.59,12.89c-0.08,0.09-0.19,0.14-0.32,0.16c-0.13,0.01-0.24-0.02-0.34-0.11c-0.1-0.09-0.16-0.21-0.18-0.36
		c-0.01-0.15,0.02-0.27,0.11-0.37c0.08-0.09,0.18-0.14,0.31-0.15c0.13-0.01,0.24,0.03,0.34,0.12c0.1,0.09,0.16,0.21,0.18,0.35
		C36.71,12.68,36.67,12.8,36.59,12.89 M41.02,11.7l-0.86-0.75l-3.08,3.51c-0.04-0.1-0.03-0.28,0.02-0.56
		c0.04-0.18,0.08-0.37,0.12-0.56c0.07-0.39,0.04-0.8-0.11-1.23c-0.15-0.43-0.38-0.79-0.68-1.1l0.06-1.04
		c1.16,0.15,2.2,0.44,3.1,0.87l0.2-0.23l-2.25-1.97l-0.06-0.68l3.48,3.06L41.02,11.7z M37.45,13.27l1.69-1.92
		c-0.62-0.27-1.3-0.45-2.04-0.54C37.54,11.66,37.65,12.48,37.45,13.27"/>
	<path class="st14" d="M45.52,18.44l-0.44-0.72l-4.02,2.47l0.02-0.23c0.42-0.43,0.75-1.05,1-1.84c-0.55-0.02-0.95-0.24-1.2-0.65
		c-0.35-0.57-0.32-1.28,0.08-2.14c0.31-0.68,0.74-1.28,1.3-1.79l0.06,0.32c-0.47,0.61-0.77,1.09-0.91,1.44
		c-0.24,0.61-0.21,1.17,0.1,1.67c0.14,0.22,0.31,0.37,0.53,0.45c0.21,0.08,0.42,0.06,0.63-0.07c0.14-0.09,0.27-0.21,0.38-0.38
		c0.14-0.2,0.17-0.37,0.09-0.49c-0.33,0.07-0.58-0.03-0.76-0.32c-0.11-0.17-0.15-0.36-0.13-0.56c0.02-0.2,0.11-0.35,0.26-0.45
		c0.18-0.11,0.37-0.1,0.58,0.01c0.18,0.1,0.33,0.25,0.45,0.45c0.24,0.38,0.29,0.8,0.17,1.25c-0.12,0.45-0.36,0.79-0.73,1.01
		c-0.07,0.05-0.15,0.08-0.23,0.11l-0.51,0.89l2.58-1.59l-2.44-3.98l0.15-0.66l3.14,5.11L45.52,18.44z"/>
	<path class="st14" d="M46.4,20.63l-0.52-1.11l-4.39,2.04l0.24-0.63l3.14-1.46c0.25-0.11,0.41-0.3,0.49-0.57
		c0.08-0.26,0.04-0.52-0.11-0.76l0.21-0.65c0.08,0.13,0.15,0.25,0.2,0.36c0.18,0.38,0.21,0.71,0.08,0.98
		c-0.06,0.15-0.27,0.4-0.62,0.74c0.51-0.38,1.09-0.73,1.75-1.03l-0.05,0.23c-0.25,0.16-0.42,0.34-0.5,0.54l0.31,0.67L46.4,20.63z"/>
	<path class="st14" d="M47.97,24.86l-1.38-3.73l-1.82,0.67c0.08,0.08,0.23,0.17,0.45,0.29c0.3,0.16,0.46,0.25,0.5,0.28
		c0.37,0.23,0.74,0.57,1.11,1.01l-0.27,1.01c-0.9-0.13-1.66-0.09-2.27,0.14c-0.05,0.02-0.11,0.05-0.2,0.09
		c-0.09,0.04-0.15,0.07-0.2,0.09c-0.09,0.03-0.37,0.19-0.86,0.47l0.03-0.36c0.71-0.46,1.27-0.76,1.68-0.92
		c0.39-0.14,0.79-0.24,1.18-0.29c-0.29-0.36-0.65-0.65-1.07-0.87c-0.42-0.22-0.85-0.34-1.29-0.36l0.37-0.83l2.47-0.91l-0.17-0.47
		l0.27-0.63l1.73,4.7L47.97,24.86z"/>
	<path class="st14" d="M49.11,29.69l-0.27-1.08l-4.57,1.14l0.33-0.6l2.79-0.67c0.17-0.04,0.36-0.2,0.57-0.49
		c0.21-0.28,0.3-0.51,0.26-0.68c-0.02-0.1-0.08-0.2-0.18-0.29c-0.11-0.11-0.21-0.15-0.3-0.13c-0.1,0.28-0.19,0.46-0.25,0.56
		c-0.12,0.21-0.27,0.33-0.44,0.37c-0.4,0.1-0.64-0.06-0.74-0.46c-0.07-0.28,0.03-0.56,0.31-0.83c-0.15-0.03-0.3-0.1-0.45-0.22
		c-0.14-0.12-0.24-0.25-0.27-0.41c-0.04-0.17-0.01-0.33,0.09-0.47c0.11-0.14,0.24-0.23,0.42-0.27c0.17-0.04,0.39,0,0.66,0.14
		c0.28,0.14,0.44,0.28,0.5,0.44c0.25-0.18,0.37-0.39,0.38-0.63c0-0.1-0.06-0.36-0.17-0.78l0.33-0.59l0.25,0.98
		c0.06,0.25,0.04,0.5-0.08,0.75c-0.11,0.25-0.28,0.43-0.49,0.54c0.45,0.09,0.79,0.34,1.03,0.75c0.05,0.09,0.09,0.16,0.1,0.2
		c0.04,0.15-0.12,0.45-0.47,0.88c-0.31,0.4-0.55,0.65-0.71,0.74c0.94-0.34,1.69-0.59,2.25-0.75c-0.08,0.16-0.14,0.28-0.2,0.36
		c-0.1,0.05-0.19,0.1-0.28,0.15c-0.14,0.08-0.2,0.2-0.17,0.34l0.1,0.41L49.11,29.69z"/>
	<polygon class="st14" points="51.8,29.45 49.52,27.76 49.3,26.61 51.77,29.01 	"/>
	<path class="st14" d="M23.92,29.25h-1.46v4.73l-0.58-0.53v-2.12c0-0.11-0.1-0.23-0.31-0.35c-0.2-0.12-0.38-0.18-0.53-0.18
		c-0.26,0-0.59,0.24-1,0.71c-0.42,0.49-0.71,0.75-0.86,0.76c-0.05,0.01-0.12,0.01-0.22,0.01c-0.28,0-0.44-0.03-0.48-0.08
		c-0.18-0.02-0.48-0.33-0.9-0.92l0.39-0.3c0.02,0.11,0.08,0.24,0.2,0.39c0.12,0.15,0.24,0.23,0.37,0.23c0.13,0,0.33-0.14,0.62-0.42
		c0.16-0.17,0.31-0.33,0.47-0.5c-0.07-0.66-0.44-1-1.09-1.03c-0.15,0-0.38-0.01-0.67-0.05c-0.17-0.04-0.33-0.15-0.5-0.35
		c-0.06,0-0.3-0.16-0.71-0.47h6.65L23.92,29.25z M21.87,30.88v-1.63h-2.7c0.52,0.32,0.78,0.63,0.78,0.92c0,0.08-0.01,0.16-0.04,0.25
		c0.07-0.01,0.2-0.07,0.39-0.18c0.19-0.11,0.33-0.17,0.41-0.17c0.18,0,0.4,0.11,0.66,0.31C21.43,30.44,21.6,30.61,21.87,30.88"/>
	<path class="st14" d="M30.45,29.25h-3.07v1.27c0.43-0.16,0.75-0.24,0.99-0.24c0.14,0,0.29,0.03,0.44,0.08
		c0.18,0.07,0.27,0.15,0.27,0.25c0-0.01-0.03,0.19-0.08,0.59c-0.04,0.31-0.06,0.67-0.06,1.1c0,0.58,0.07,1.11,0.22,1.57
		c-0.09-0.02-0.24-0.11-0.46-0.28c-0.22-0.17-0.33-0.28-0.33-0.35v-2.31c-0.2,0-0.54,0.09-0.99,0.28v2.94l-0.32-0.2
		c-0.02-0.11-0.12-0.34-0.3-0.7c-0.13-0.25-0.37-0.46-0.73-0.61c-0.36-0.16-0.72-0.23-1.09-0.23l-0.58-0.59
		c0.17-0.09,0.92-0.44,2.23-1.05c-0.07-0.17-0.23-0.31-0.46-0.44c-0.24-0.13-0.47-0.19-0.7-0.19c-0.26,0-0.39,0.03-0.39,0.09
		c0,0.02,0.03,0.07,0.09,0.15c0.06,0.08,0.09,0.14,0.09,0.18c0,0.13-0.07,0.24-0.21,0.33c-0.14,0.09-0.29,0.13-0.46,0.13
		c-0.18,0-0.36-0.05-0.51-0.15c-0.16-0.1-0.24-0.22-0.24-0.36c0-0.28,0.1-0.51,0.31-0.69c0.21-0.18,0.49-0.27,0.84-0.27
		c0.55,0,1.02,0.17,1.42,0.52c0.1,0.1,0.23,0.25,0.4,0.45v-1.26h-3.38l-0.63-0.47h7.1L30.45,29.25z M26.77,32.86v-1.47
		c-0.2,0.08-0.64,0.28-1.31,0.61C25.93,32.19,26.37,32.47,26.77,32.86"/>
	<path class="st14" d="M32.92,29.25h-1.49v4.84l-0.57-0.48v-3.46c0-0.27-0.12-0.5-0.38-0.68c-0.25-0.19-0.55-0.26-0.9-0.22
		l-0.61-0.46c0.18-0.02,0.35-0.03,0.5-0.03c0.52,0,0.89,0.11,1.12,0.34c0.13,0.12,0.3,0.41,0.5,0.88c-0.16-0.62-0.24-1.29-0.24-2.02
		l0.23,0.15c0.05,0.29,0.16,0.52,0.34,0.68h0.9L32.92,29.25z"/>
	<path class="st14" d="M38.39,29.25h-1.52v4.81l-0.22-0.23V33.7c0-0.55-0.2-1.14-0.61-1.77c-0.48-0.73-1.04-1.1-1.67-1.1
		c-0.07,0-0.12,0.01-0.14,0.03c0.25,0.29,0.38,0.52,0.38,0.71c0,0.38-0.27,0.57-0.81,0.57c-0.76,0-1.14-0.29-1.14-0.88
		c0-0.31,0.14-0.56,0.42-0.75c0.28-0.19,0.62-0.29,1.02-0.29c0.83,0,1.55,0.5,2.16,1.49v-2.45H32.2l-0.6-0.47h6.17L38.39,29.25z"/>
	<path class="st14" d="M40.69,29.25h-1.67v4.72l-0.59-0.46v-4.27h-0.75l-0.64-0.47h1.47l-0.1-0.35c-0.04-0.16-0.21-0.39-0.51-0.7
		c-0.55-0.56-1.47-0.84-2.77-0.84c-0.3,0-0.61,0.03-0.95,0.09c-0.47,0.08-0.7,0.2-0.7,0.35c0,0.14,0.29,0.22,0.88,0.24
		c0.83,0.03,1.37,0.08,1.63,0.14c0.59,0.14,0.88,0.42,0.88,0.84c0,0.1-0.02,0.19-0.05,0.28h-0.63c0.19-0.12,0.29-0.23,0.29-0.32
		c0-0.2-0.33-0.32-0.98-0.34l-0.98-0.04c-0.33-0.01-0.62-0.09-0.9-0.24c-0.31-0.17-0.47-0.37-0.47-0.6c0-0.27,0.29-0.5,0.87-0.67
		c0.46-0.14,0.91-0.2,1.33-0.2c0.4,0,0.9,0.08,1.51,0.23c0.28,0.07,0.61,0.22,0.98,0.46c0.5,0.32,0.9,0.88,1.18,1.67h1.08
		L40.69,29.25z"/>
	<path class="st15" d="M24.65,25.99c6.49-8.12,3.63-13.18,3.63-13.18s8.5,3.15,7.45,13.18"/>
	<path class="st15" d="M22.4,35.1c0,0,0.34,6.45,6.96,12.34c-0.05-2.04,0.23-8.79,3.71-12.14"/>
	<path class="st15" d="M22.14,57.22c0,0,5.1-0.62,6.87-5.37c0.87,1.3,2.62,3.56,7.31,5.37c-1.36,2.26-2.94,4.63-7.09,5.14
		C27.16,62.36,22.99,60.16,22.14,57.22z"/>
	<polygon class="st13" points="28.58,60.56 28.58,58.53 26.57,58.53 26.57,57.69 28.58,57.69 28.58,55.68 29.43,55.68 29.43,57.69 
		31.44,57.69 31.44,58.53 29.43,58.53 29.43,60.56 	"/>
</g>
</svg>
